<svg width="1019" height="291" viewBox="0 0 1019 291" fill="none" xmlns="http://www.w3.org/2000/svg">
<path d="M115.502 271.1C96.9024 261.3 80.6024 249 65.8024 233.5C56.0024 223.4 43.0024 205.9 43.0024 203C43.0024 202.1 42.4024 201.4 41.6024 201.4C40.9024 201.4 39.6024 199.5 38.7024 197.2C35.7024 188.6 34.5024 185.9 32.9024 184.4C30.2024 181.8 29.0024 178.7 29.0024 174C29.0024 169.4 29.0024 169.4 32.4024 169.4C35.4024 169.4 36.0024 169.9 37.9024 173.9C39.1024 176.4 40.0024 179.2 40.0024 180.3C40.0024 181.4 40.4024 182.4 40.8024 182.6C41.3024 182.8 43.1024 185.7 44.9024 189L48.1024 195.2L56.3024 191.9C60.8024 190.2 67.5024 187.7 71.1024 186.5C76.7024 184.7 77.9024 183.8 79.3024 180.8L81.0024 177.3L77.1024 170.9C75.0024 167.4 72.3024 161.8 71.1024 158.6L68.9024 152.7L61.9024 152C53.7024 151.3 50.4024 149.8 46.2024 145C41.6024 139.8 40.8024 135.2 41.2024 117.5C41.5024 103.4 41.7024 101.5 43.8024 97.9003C46.4024 93.3003 51.1024 89.7003 55.8024 88.8003C58.4024 88.3003 59.0024 87.7003 59.0024 85.7003C59.0024 84.3003 59.7024 80.4003 60.6024 77.0003C65.9024 56.6003 86.3024 37.1003 109.002 30.8003C118.002 28.3003 141.702 28.3003 151.002 30.8003C175.802 37.5003 194.502 56.6003 199.602 80.5003C201.302 88.1003 201.302 88.2003 204.702 88.7003C209.502 89.5003 214.902 93.9003 217.102 98.8003C218.702 102.2 219.002 105.4 219.002 118.4C219.002 126.9 218.502 135.6 217.902 137.7C216.702 142 211.702 148.2 208.402 149.4C206.802 150 206.002 151.4 205.502 154.4C205.102 156.6 203.402 160.4 201.602 162.7C198.202 167.3 189.402 172.4 184.802 172.4C182.902 172.4 181.502 173.2 180.402 175C178.802 177.4 178.802 177.8 180.302 181C181.302 182.9 182.802 184.7 183.702 185.1C184.702 185.4 191.402 188 198.702 190.8L211.902 196L216.102 187.7C218.402 183.1 220.902 179.4 221.602 179.4C222.602 179.4 223.002 178.1 223.002 175.4C223.002 173.2 223.402 171.4 223.902 171.4C224.402 171.4 225.102 169.6 225.502 167.4C226.102 163.6 226.402 163.4 229.702 163.4H233.302L232.802 168.6C232.502 171.5 231.702 174 231.102 174.2C230.502 174.4 230.002 175.7 230.002 177C230.002 178.5 229.402 179.4 228.502 179.4C227.502 179.4 227.002 180.4 227.002 182.2C227.102 185.6 219.002 202.4 217.302 202.4C216.602 202.4 216.002 202.8 216.002 203.4C216.002 203.9 215.402 205.2 214.602 206.1C213.802 207.1 210.302 211.7 206.902 216.4C195.502 232 171.202 254.4 154.902 264.2C140.402 273 133.202 276.4 129.302 276.4C126.702 276.4 122.502 274.8 115.502 271.1ZM144.502 226.5C142.502 224.4 141.802 224.2 141.102 225.3C140.602 226 140.602 228.1 141.002 229.8C141.502 231.5 142.102 234.3 142.502 235.9L143.202 238.9L145.202 234L147.102 229L144.502 226.5ZM117.802 231.7C119.202 225 118.302 223.4 115.002 226.9C112.802 229.2 112.802 229.6 114.002 233.4C114.702 235.6 115.602 237.4 116.002 237.4C116.302 237.4 117.102 234.8 117.802 231.7ZM111.602 198.8C108.302 197.7 104.002 196 102.302 195.1L99.0024 193.4L102.502 203C104.402 208.3 106.002 212.9 106.002 213.3C106.102 213.6 108.702 211 111.902 207.4L117.802 200.9L111.602 198.8ZM155.802 205.2C157.502 200.6 159.202 196.1 159.602 195.1C160.202 193.3 160.102 193.3 156.402 195.2C154.202 196.3 149.902 198 146.702 198.9L141.002 200.5L146.802 207C149.902 210.5 152.602 213.4 152.702 213.4C152.702 213.4 154.202 209.7 155.802 205.2ZM144.102 179.7L150.502 176.6L141.602 176.5C133.802 176.4 132.302 176.1 130.302 174.2C128.302 172.4 128.002 171.1 128.002 165.3C128.002 154.7 131.102 152.9 147.402 153.5C154.502 153.8 156.202 154.3 158.202 156.2C161.002 158.8 163.002 159 166.902 157C170.302 155.2 171.602 153.7 173.502 149.2L175.002 145.6L171.202 146.6C165.802 148.1 155.402 146.8 149.502 144C143.302 140.9 138.102 135.7 133.802 128C132.002 124.7 130.102 121.9 129.502 121.7C129.002 121.6 127.002 124.3 125.102 127.9C121.302 135.4 116.802 139.7 109.202 143.2C104.402 145.4 102.802 145.6 93.9024 145.2C86.8024 144.9 84.0024 145.2 84.0024 146C84.0024 146.6 85.8024 150.8 88.1024 155.3C99.8024 178.8 124.002 189.3 144.102 179.7ZM162.502 91.3003C155.102 83.8003 155.202 83.8003 145.202 87.7003C135.502 91.6003 124.502 94.2003 113.702 95.4003C108.902 95.9003 116.602 96.2003 137.002 96.3003L167.402 96.4003L162.502 91.3003ZM82.1024 84.5003C84.9024 83.3003 91.1024 82.1003 99.0024 81.4003C121.302 79.3003 133.802 75.8003 146.102 67.9003C150.102 65.3003 152.602 64.4003 155.902 64.4003C160.202 64.4003 160.602 64.7003 171.202 75.2003L182.202 85.9003L180.202 80.8003C170.302 54.4003 138.002 38.9003 112.702 48.4003C100.602 53.0003 88.4024 62.9003 82.3024 73.2003C80.1024 77.0003 76.6024 86.4003 77.4024 86.4003C77.6024 86.4003 79.7024 85.5003 82.1024 84.5003Z" fill="#0066FF"/>
<path d="M24.0024 160.7C22.7024 156.4 21.5024 151 21.2024 148.7L20.7024 144.4H24.1024H27.5024L30.3024 154.2C34.0024 167.2 33.9024 168.4 29.6024 168.4C26.3024 168.4 26.3024 168.3 24.0024 160.7Z" fill="#0066FF"/>
<path d="M229.002 159.9C229.002 158.6 230.402 152.4 232.002 146.3C233.702 140.2 235.602 132.1 236.202 128.3L237.402 121.4H240.702C243.502 121.4 244.002 121.8 244.002 123.8C244.002 127.5 241.402 140.7 238.402 152.2L235.702 162.4H232.302C229.402 162.4 229.002 162.1 229.002 159.9Z" fill="#0066FF"/>
<path d="M19.0024 143.1C19.0024 142.9 17.9024 136.1 16.5024 128C15.1024 119.9 14.0024 111.7 14.0024 109.8C14.0024 106.6 14.2024 106.4 17.4024 106.4H20.8024L21.5024 113.2C21.8024 116.9 23.0024 124.2 24.1024 129.6C26.8024 143.1 26.7024 143.4 22.5024 143.4C20.6024 143.4 19.0024 143.3 19.0024 143.1Z" fill="#0066FF"/>
<path d="M239.002 109.9C239.002 105.4 239.002 105.4 242.502 105.4C246.002 105.4 246.002 105.4 246.002 109.9C246.002 114.4 246.002 114.4 242.502 114.4C239.002 114.4 239.002 114.4 239.002 109.9Z" fill="#0066FF"/>
<path d="M13.0024 100.4V95.4004H16.5024H20.0024V100.4V105.4H16.5024H13.0024V100.4Z" fill="#0066FF"/>
<path d="M240.002 99.4004C240.002 95.5004 240.102 95.4004 243.502 95.4004C246.902 95.4004 247.002 95.5004 247.002 99.4004C247.002 103.3 246.902 103.4 243.502 103.4C240.102 103.4 240.002 103.3 240.002 99.4004Z" fill="#0066FF"/>
<path d="M13.0024 91.9004C13.0024 91.1004 12.3024 90.4004 11.5024 90.4004C10.2024 90.4004 10.0024 88.1004 10.0024 75.4004C10.0024 63.0004 10.3024 60.4004 11.4024 60.4004C12.4024 60.4004 13.1024 58.8004 13.5024 55.7004C13.9024 53.0004 14.4024 50.2004 14.6024 49.3004C14.9024 48.1004 20.0024 45.9004 30.1024 42.5004C38.3024 39.7004 45.9024 37.4004 47.0024 37.4004C48.0024 37.4004 49.0024 37.0004 49.2024 36.5004C49.7024 35.1004 78.0024 26.4004 82.2024 26.4004C84.2024 26.4004 86.3024 25.8004 86.7024 25.0004C87.7024 23.3004 105.502 17.4004 109.802 17.4004C111.802 17.4004 113.002 16.9004 113.002 16.1004C113.002 14.5004 125.302 10.4004 130.202 10.4004C134.102 10.4004 140.202 12.2004 141.102 13.6004C141.402 14.1004 143.602 14.8004 145.902 15.1004C149.902 15.7004 150.002 15.8004 150.002 19.5004C150.002 23.2004 149.802 23.4004 147.002 23.4004C145.402 23.4004 141.202 22.4004 137.802 21.3004L131.602 19.1004L125.002 21.3004C121.302 22.4004 117.402 23.4004 116.302 23.4004C115.102 23.4004 114.002 23.9004 113.802 24.4004C113.402 25.8004 97.1024 31.3004 91.2024 32.1004C88.6024 32.4004 86.1024 33.3004 85.5024 34.0004C85.0024 34.7004 82.5024 35.7004 80.0024 36.3004C75.2024 37.4004 54.9024 44.0004 51.5024 45.5004C50.4024 46.0004 43.1024 48.6004 35.2024 51.3004C27.3024 54.0004 20.6024 56.5004 20.2024 56.8004C19.9024 57.2004 19.6024 65.5004 19.6024 75.4004L19.5024 93.4004H16.3024C14.0024 93.4004 13.0024 92.9004 13.0024 91.9004Z" fill="#0066FF"/>
<path d="M241.002 73.0004C241.002 56.8004 241.002 56.5004 238.802 55.9004C234.702 54.7004 231.002 52.9004 231.002 52.2004C231.002 51.7004 230.202 51.4004 229.302 51.4004C227.402 51.4004 210.502 46.1004 205.502 43.9004C203.902 43.2004 200.802 42.1004 198.802 41.4004C195.302 40.3004 195.002 40.0004 195.002 36.3004C195.002 32.7004 195.202 32.4004 197.702 32.4004C200.802 32.4004 215.302 37.3004 215.802 38.6004C216.002 39.0004 216.902 39.4004 217.902 39.4004C220.102 39.4004 232.302 43.5004 233.002 44.4004C233.302 44.8004 235.402 45.5004 237.802 45.9004C240.102 46.3004 242.002 47.0004 242.002 47.5004C242.002 48.0004 242.902 48.4004 244.002 48.4004C245.602 48.4004 246.002 49.1004 246.002 51.9004C246.002 53.8004 246.502 55.4004 247.002 55.4004C247.602 55.4004 248.002 61.7004 248.002 72.4004V89.4004H244.502H241.002V73.0004Z" fill="#0066FF"/>
<path d="M185.002 36.5004C185.002 36.0004 182.602 35.3004 179.802 35.0004C174.302 34.2004 161.702 29.7004 161.202 28.2004C161.002 27.8004 159.302 27.4004 157.402 27.4004C154.102 27.4004 154.002 27.3004 154.002 23.4004C154.002 19.5004 154.102 19.4004 157.502 19.4004C159.402 19.4004 161.002 19.9004 161.002 20.4004C161.002 21.0004 162.302 21.4004 164.002 21.4004C167.102 21.4004 179.102 25.1004 180.002 26.4004C180.802 27.4004 187.002 29.4004 189.602 29.4004C191.702 29.4004 192.002 29.9004 192.002 33.4004C192.002 37.3004 191.902 37.4004 188.502 37.4004C186.602 37.4004 185.002 37.0004 185.002 36.5004Z" fill="#0066FF"/>
<path d="M114.602 283.4C96.5023 273.5 84.0023 265.1 71.9023 254.7C48.4023 234.3 30.8023 209.7 18.8023 180.2C6.80234 150.5 1.60234 120.9 0.302339 73.9002C-0.497661 44.5002 -0.19766 43.2002 7.40234 39.9002C18.4023 35.1002 126.402 0.100196 130.502 0.000196498C135.702 -0.0998035 250.702 38.0002 256.302 41.7002C259.902 44.1002 260.402 48.8002 259.602 74.8002C257.902 128.6 250.702 163.2 234.602 195.2C221.302 221.5 199.302 247.7 176.102 264.4C163.002 274 133.702 290.4 129.902 290.4C128.602 290.4 121.702 287.2 114.602 283.4Z" fill="#0066FF"/>
<path d="M58.0024 150.5C58.0024 149.3 58.9024 148.5 60.5024 148.2C61.9024 147.9 63.0024 148.1 63.0024 148.5C63.0024 149 63.7024 149.4 64.5024 149.4C65.3024 149.4 66.0024 150.1 66.0024 150.9C66.0024 152 64.9024 152.4 62.0024 152.4C58.7024 152.4 58.0024 152 58.0024 150.5Z" fill="#0066FF"/>
<path d="M197.002 194.4C189.002 191.2 181.702 188.3 180.802 188.1C179.802 187.8 177.902 185.1 176.402 182.1L173.702 176.7L176.502 173C178.402 170.4 180.002 169.4 181.902 169.4C186.402 169.4 195.202 164.3 198.602 159.7C200.402 157.4 202.102 153.6 202.502 151.4C203.002 148.4 203.802 147 205.402 146.4C208.702 145.2 213.702 139 214.902 134.7C215.502 132.6 216.002 125.3 216.002 118.4C216.002 108.4 215.602 105.1 214.102 101.8C211.902 96.9004 206.502 92.5004 201.702 91.7004C198.302 91.2004 198.302 91.1004 196.602 83.5004C191.502 59.6004 172.702 40.4004 148.002 33.8004C139.002 31.4004 120.702 31.4004 112.002 33.8004C89.4022 40.0004 68.9022 59.6004 63.6022 80.0004C62.7022 83.4004 62.0022 87.3004 62.0022 88.7004C62.0022 90.7004 61.4022 91.3004 58.8022 91.8004C54.1022 92.7004 49.4022 96.3004 46.8022 100.9C44.8022 104.4 44.5022 106.6 44.2022 117.4C43.7022 133.1 44.8022 137.5 50.4022 143C54.9022 147.5 59.7022 149.4 67.1022 149.4H71.7022L74.5022 156.5C76.0022 160.4 79.2022 166.6 81.6022 170.1L85.9022 176.5L83.3022 182C80.9022 186.9 80.1022 187.5 75.5022 189C72.8022 189.9 65.4022 192.6 59.2022 195C52.9022 197.4 47.4022 199.4 46.9022 199.4C45.7022 199.4 36.5022 180.9 32.3022 170C27.8022 158.1 21.5022 133.6 19.6022 120.2C17.2022 103.5 15.7022 80.9004 16.4022 69.9004C16.7022 64.4004 17.0022 58.5004 17.0022 56.8004V53.7004L46.8022 43.6004C63.1022 38.1004 83.5022 31.3004 92.0022 28.6004C100.502 25.9004 112.702 21.8004 119.102 19.5004L130.802 15.4004L142.102 19.3004C148.402 21.4004 165.202 27.0004 179.502 31.7004C206.102 40.5004 234.002 50.1004 240.402 52.8004L244.002 54.3004V68.7004C244.002 116.6 235.702 157 218.902 190.7C216.202 196 213.402 200.4 212.702 200.3C212.102 200.2 205.002 197.6 197.002 194.4Z" fill="white"/>
<path d="M185.802 157.9C185.502 157.5 185.702 155.7 186.302 153.8C187.002 151.5 188.102 150.2 189.702 149.8C193.002 148.9 193.702 150 192.002 153.1C190.402 155.9 186.702 158.7 185.802 157.9Z" fill="white"/>
<path d="M112.202 239.701L108.002 228.101L112.802 222.801C115.402 220.001 117.802 217.601 118.202 217.501C118.602 217.401 119.902 219.201 120.902 221.301L122.902 225.201L120.102 237.801C118.502 244.801 117.002 250.701 116.802 251.001C116.502 251.201 114.402 246.201 112.202 239.701Z" fill="white"/>
<path d="M140.502 243.7C139.602 239.4 138.302 233.6 137.602 230.8C136.202 225.6 136.402 224.9 139.702 219.5L141.202 217.2L146.502 222.4L151.702 227.6L147.302 239.2C144.902 245.6 142.802 251 142.602 251.2C142.402 251.4 141.502 248 140.502 243.7Z" fill="white"/>
<path d="M72.2022 218.7C74.2022 211.4 79.6022 195.4 80.1022 195.4C80.4022 195.4 80.3022 197.5 79.9022 200.2C79.5022 202.8 79.1022 207.4 79.1022 210.5L79.0022 216L85.8022 218.1L92.5022 220.2L82.1022 220.3C72.7022 220.4 71.8022 220.2 72.2022 218.7Z" fill="white"/>
<path d="M104.802 219.8C103.402 217.6 91.9023 185.2 92.2023 184.3C92.4023 183.8 94.8023 185 97.5023 187C103.902 191.7 113.702 196.2 119.202 197C121.602 197.4 124.002 197.9 124.602 198.3C125.302 198.7 121.702 203.2 115.602 209.8C109.902 215.8 105.102 220.3 104.802 219.8Z" fill="white"/>
<path d="M143.102 209.4C136.802 202.6 133.402 198.2 134.202 198C134.902 197.7 137.302 197.3 139.402 196.9C145.602 195.9 153.302 192.7 159.902 188.4C165.402 184.8 166.002 184.6 166.002 186.5C166.002 188.8 154.802 220.4 154.002 220.4C153.702 220.4 148.802 215.4 143.102 209.4Z" fill="white"/>
<path d="M168.102 219.9C168.402 219.7 171.302 218.8 174.602 218.1L180.502 216.7L180.202 209.3C180.102 205.2 179.702 200.3 179.402 198.4C178.402 192.3 180.002 195.7 183.902 208.3L187.802 220.4H177.702C172.202 220.4 167.902 220.2 168.102 219.9Z" fill="white"/>
<path d="M114.502 184.7C101.502 180 91.5021 171.1 85.3021 158.7C81.4021 150.9 77.2021 137.9 78.3021 136.8C78.6021 136.5 80.7021 137.5 82.9021 139C86.1021 141 88.6021 141.8 94.0021 142.2C100.402 142.6 101.602 142.4 107.402 139.5C114.802 135.9 118.802 131.8 123.002 123.4C125.202 119 126.602 117.4 128.102 117.4C131.602 117.4 133.902 119.3 136.502 124.5C145.602 142.3 165.802 149.6 177.602 139.2C179.802 137.2 181.002 136.7 181.002 137.6C181.002 139.4 176.602 152.3 175.002 155.3C171.902 161.2 160.002 163.6 155.302 159.2C151.102 155.3 137.502 155.4 133.202 159.5C130.102 162.3 130.202 168.3 133.302 171.2C135.302 173.1 136.802 173.4 144.202 173.4C151.202 173.4 153.202 173 155.302 171.4C156.802 170.2 159.302 169.4 161.702 169.4L165.502 169.5L160.502 174.1C157.802 176.6 152.102 180.3 148.002 182.3C141.102 185.6 139.702 185.9 130.002 186.2C121.902 186.4 118.402 186 114.502 184.7Z" fill="white"/>
<path d="M59.8022 138.701C59.6022 138.201 59.4022 129.401 59.5022 118.901C59.6022 100.501 59.6022 99.9005 61.6022 99.6005C63.4022 99.3005 63.8022 100.001 64.3022 104.601C65.2022 111.401 65.2022 127.401 64.4022 134.201C63.9022 138.301 63.3022 139.401 61.9022 139.401C60.9022 139.401 60.0022 139.101 59.8022 138.701Z" fill="white"/>
<path d="M196.002 119.2C196.002 100.3 196.102 99.4004 197.902 99.4004C199.002 99.4004 200.102 99.8004 200.402 100.3C200.702 100.8 200.702 109.7 200.302 120.2C199.702 137.9 199.602 139.2 197.802 139.1C196.102 139 196.002 137.7 196.002 119.2Z" fill="white"/>
<path d="M85.6022 131.4C80.1022 124.9 79.8022 115.6 84.8022 110.9C88.8022 107.2 90.1022 107.6 88.8022 112.2C88.2022 114.4 88.0022 119.7 88.4022 125.2C88.8022 130.2 88.8022 134.4 88.6022 134.4C88.4022 134.4 87.0022 133 85.6022 131.4Z" fill="white"/>
<path d="M171.602 128.2C172.602 121.6 172.602 119.2 171.602 113.2C170.702 107.7 171.502 107.2 175.302 110.9C180.002 115.7 179.502 125.8 174.302 131.6C171.502 134.7 170.802 133.7 171.602 128.2Z" fill="white"/>
<path d="M124.502 109.4L122.902 106.4H129.002C132.302 106.4 135.002 106.7 135.002 107.2C134.902 111.1 133.602 112.4 129.902 112.4C126.602 112.4 125.802 111.9 124.502 109.4Z" fill="white"/>
<path d="M175.002 101.7C170.602 99.4004 170.302 99.4004 129.702 99.4004C90.8023 99.4004 88.7023 99.5004 85.0023 101.4C80.6023 103.7 79.8023 102.9 83.3023 99.7004C87.3023 96.0004 91.7023 94.4004 101.702 93.4004C124.802 90.8004 138.902 87.3004 149.702 81.3004L155.002 78.4004L167.702 90.8004C174.802 97.6004 180.302 103.4 180.002 103.6C179.702 103.8 177.502 102.9 175.002 101.7Z" fill="white"/>
<path d="M73.2022 89.7004C75.4022 74.9004 81.1022 64.6004 91.4022 56.2004C103.502 46.5004 114.602 42.4004 128.902 42.4004C157.002 42.4004 180.202 60.3004 185.502 86.2004C186.402 90.2004 186.802 94.0004 186.402 94.5004C186.102 95.1004 179.402 89.2004 171.602 81.5004C163.702 73.7004 156.702 67.4004 155.902 67.4004C155.102 67.4004 152.102 69.0004 149.102 70.9004C136.802 78.8004 124.302 82.3004 102.002 84.4004C88.2022 85.7004 82.0022 87.7004 77.4022 92.5004C73.1022 97.0004 72.2022 96.4004 73.2022 89.7004Z" fill="white"/>
<path d="M323.747 93.6002H337.059L365.603 172.576C365.774 173.174 365.902 173.856 365.987 174.624C366.072 175.392 366.115 176.118 366.115 176.8H366.371C366.371 176.118 366.414 175.392 366.499 174.624C366.67 173.856 366.84 173.174 367.011 172.576L395.555 93.6002H408.995L376.611 183.2H356.131L323.747 93.6002ZM436.944 183.968C432.251 183.968 427.771 183.328 423.504 182.048C419.237 180.683 415.483 178.635 412.24 175.904C409.083 173.174 406.565 169.76 404.688 165.664C402.811 161.568 401.872 156.747 401.872 151.2C401.872 145.654 402.811 140.832 404.688 136.736C406.565 132.64 409.083 129.227 412.24 126.496C415.483 123.766 419.237 121.76 423.504 120.48C427.771 119.115 432.251 118.432 436.944 118.432C441.637 118.432 446.032 119.115 450.128 120.48C454.309 121.846 457.936 123.894 461.008 126.624C464.08 129.27 466.512 132.64 468.304 136.736C470.096 140.832 470.992 145.654 470.992 151.2C470.992 152.139 470.992 152.779 470.992 153.12C470.992 153.376 470.907 153.931 470.736 154.784H414.928C415.867 161.184 418.341 165.963 422.352 169.12C426.363 172.278 431.312 173.814 437.2 173.728C442.149 173.643 446.459 172.704 450.128 170.912C453.883 169.12 456.656 165.835 458.448 161.056L469.968 162.592C468.773 166.432 467.067 169.718 464.848 172.448C462.715 175.179 460.197 177.398 457.296 179.104C454.395 180.726 451.195 181.963 447.696 182.816C444.283 183.584 440.699 183.968 436.944 183.968ZM437.2 128.288C434.384 128.288 431.568 128.843 428.752 129.952C425.936 130.976 423.461 132.598 421.328 134.816C419.195 136.95 417.488 139.68 416.208 143.008C415.013 146.336 414.587 150.262 414.928 154.784C415.44 153.078 415.995 151.712 416.592 150.688C417.275 149.664 418.043 148.896 418.896 148.384C419.835 147.872 420.859 147.531 421.968 147.36C423.163 147.19 424.528 147.104 426.064 147.104H459.088C458.149 140.534 455.717 135.798 451.792 132.896C447.952 129.91 443.088 128.374 437.2 128.288ZM478.521 119.2H491.065V132.384C491.065 133.664 490.937 135.115 490.681 136.736C490.51 138.272 490.297 139.68 490.041 140.96L490.297 141.088C490.553 139.808 490.852 138.4 491.193 136.864C491.62 135.328 492.174 133.963 492.857 132.768C495.502 127.648 498.916 123.936 503.097 121.632C507.278 119.328 511.545 118.176 515.897 118.176C519.908 118.176 523.278 119.072 526.009 120.864C528.825 122.656 531.044 125.046 532.665 128.032C534.372 131.019 535.566 134.475 536.249 138.4C537.017 142.24 537.401 146.294 537.401 150.56V183.2H524.857V150.56C524.857 144.416 523.748 139.595 521.529 136.096C519.31 132.512 516.025 130.72 511.673 130.72C510.052 130.72 508.046 131.104 505.657 131.872C503.353 132.555 501.092 133.963 498.873 136.096C496.74 138.144 494.905 141.046 493.369 144.8C491.833 148.47 491.065 153.291 491.065 159.264V183.2H478.521V119.2ZM542.711 130.464V118.688H545.143C546.594 118.688 548.087 118.091 549.623 116.896C551.244 115.702 552.695 114.166 553.975 112.288C555.255 110.411 556.322 108.32 557.175 106.016C558.028 103.712 558.455 101.451 558.455 99.2322L571.127 99.1042C570.956 102.688 570.103 106.102 568.567 109.344C567.031 112.502 564.77 115.062 561.783 117.024C560.674 117.707 559.308 118.219 557.687 118.56C556.151 118.816 554.743 119.072 553.463 119.328V119.584C554.743 119.328 556.151 119.115 557.687 118.944C559.308 118.774 560.759 118.688 562.039 118.688H584.695V130.464H568.439V164.512C568.439 167.328 569.122 169.206 570.487 170.144C571.852 170.998 573.516 171.424 575.479 171.424H587.767V183.2H576.119C571.938 183.2 568.524 182.816 565.879 182.048C563.234 181.195 561.186 179.915 559.735 178.208C558.284 176.502 557.26 174.326 556.663 171.68C556.151 168.95 555.895 165.75 555.895 162.08V130.464H542.711ZM615.451 183.968C610.843 183.968 607.003 183.072 603.931 181.28C600.859 179.488 598.427 177.099 596.635 174.112C594.843 171.126 593.563 167.67 592.795 163.744C592.112 159.819 591.771 155.766 591.771 151.584V118.944H604.315V151.584C604.315 158.411 605.595 163.403 608.155 166.56C610.8 169.718 614.726 171.296 619.931 171.296C621.296 171.296 623.003 170.955 625.051 170.272C627.099 169.504 629.062 168.096 630.939 166.048C632.816 164 634.395 161.142 635.675 157.472C637.04 153.718 637.723 148.854 637.723 142.88V118.944H650.267V182.944H637.723V170.656C637.723 169.291 637.808 167.84 637.979 166.304C638.235 164.768 638.491 163.36 638.747 162.08L638.491 161.952C637.894 164.939 636.998 167.798 635.803 170.528C634.608 173.174 633.072 175.52 631.195 177.568C629.318 179.531 627.056 181.11 624.411 182.304C621.851 183.414 618.864 183.968 615.451 183.968ZM662.396 136.352C662.396 130.55 663.761 126.24 666.492 123.424C669.223 120.608 673.532 119.2 679.42 119.2H705.148V130.976L683.516 131.104C681.724 131.104 680.273 131.19 679.164 131.36C678.055 131.531 677.159 131.958 676.476 132.64C675.879 133.238 675.452 134.176 675.196 135.456C675.025 136.736 674.94 138.486 674.94 140.704V183.2H662.396V136.352ZM740.194 183.968C735.501 183.968 731.021 183.328 726.754 182.048C722.487 180.683 718.733 178.635 715.49 175.904C712.333 173.174 709.815 169.76 707.938 165.664C706.061 161.568 705.122 156.747 705.122 151.2C705.122 145.654 706.061 140.832 707.938 136.736C709.815 132.64 712.333 129.227 715.49 126.496C718.733 123.766 722.487 121.76 726.754 120.48C731.021 119.115 735.501 118.432 740.194 118.432C744.887 118.432 749.282 119.115 753.378 120.48C757.559 121.846 761.186 123.894 764.258 126.624C767.33 129.27 769.762 132.64 771.554 136.736C773.346 140.832 774.242 145.654 774.242 151.2C774.242 152.139 774.242 152.779 774.242 153.12C774.242 153.376 774.157 153.931 773.986 154.784H718.178C719.117 161.184 721.591 165.963 725.602 169.12C729.613 172.278 734.562 173.814 740.45 173.728C745.399 173.643 749.709 172.704 753.378 170.912C757.133 169.12 759.906 165.835 761.698 161.056L773.218 162.592C772.023 166.432 770.317 169.718 768.098 172.448C765.965 175.179 763.447 177.398 760.546 179.104C757.645 180.726 754.445 181.963 750.946 182.816C747.533 183.584 743.949 183.968 740.194 183.968ZM740.45 128.288C737.634 128.288 734.818 128.843 732.002 129.952C729.186 130.976 726.711 132.598 724.578 134.816C722.445 136.95 720.738 139.68 719.458 143.008C718.263 146.336 717.837 150.262 718.178 154.784C718.69 153.078 719.245 151.712 719.842 150.688C720.525 149.664 721.293 148.896 722.146 148.384C723.085 147.872 724.109 147.531 725.218 147.36C726.413 147.19 727.778 147.104 729.314 147.104H762.338C761.399 140.534 758.967 135.798 755.042 132.896C751.202 129.91 746.338 128.374 740.45 128.288ZM781.771 183.2V93.6002H820.427C830.752 93.6002 838.774 95.9469 844.491 100.64C850.294 105.334 853.195 112.459 853.195 122.016C853.195 125.686 852.427 129.27 850.891 132.768C849.44 136.182 847.307 139.254 844.491 141.984C841.675 144.715 838.219 146.934 834.123 148.64C830.112 150.262 825.547 151.072 820.427 151.072H794.315V183.2H781.771ZM794.315 140.576H819.147C821.878 140.576 824.523 140.107 827.083 139.168C829.728 138.144 832.032 136.822 833.995 135.2C835.958 133.494 837.536 131.531 838.731 129.312C839.926 127.094 840.523 124.747 840.523 122.272C840.523 119.2 839.926 116.555 838.731 114.336C837.536 112.032 835.958 110.155 833.995 108.704C832.032 107.254 829.771 106.187 827.211 105.504C824.651 104.822 821.963 104.48 819.147 104.48H794.315V140.576ZM873.074 104.48V93.6002H860.146V104.48H873.074ZM860.402 119.2H872.818V183.2H860.402V119.2ZM881.411 91.8082H893.955V183.2H881.411V91.8082ZM936.575 183.968C931.882 183.968 927.359 183.328 923.007 182.048C918.74 180.683 914.986 178.635 911.743 175.904C908.586 173.174 906.026 169.76 904.063 165.664C902.186 161.568 901.247 156.747 901.247 151.2C901.247 145.654 902.186 140.832 904.063 136.736C906.026 132.64 908.586 129.227 911.743 126.496C914.986 123.766 918.74 121.76 923.007 120.48C927.359 119.115 931.882 118.432 936.575 118.432C941.354 118.432 945.876 119.115 950.143 120.48C954.41 121.846 958.164 123.894 961.407 126.624C964.65 129.27 967.21 132.64 969.087 136.736C971.05 140.832 972.031 145.654 972.031 151.2C972.031 156.747 971.05 161.568 969.087 165.664C967.21 169.76 964.65 173.174 961.407 175.904C958.164 178.635 954.41 180.683 950.143 182.048C945.876 183.328 941.354 183.968 936.575 183.968ZM936.575 129.056C933.674 129.056 930.815 129.526 927.999 130.464C925.268 131.403 922.836 132.811 920.703 134.688C918.655 136.566 916.991 138.912 915.711 141.728C914.431 144.459 913.791 147.616 913.791 151.2C913.791 154.955 914.388 158.24 915.583 161.056C916.778 163.787 918.399 166.048 920.447 167.84C922.495 169.632 924.884 170.998 927.615 171.936C930.431 172.79 933.418 173.216 936.575 173.216C939.647 173.216 942.548 172.79 945.279 171.936C948.095 170.998 950.527 169.632 952.575 167.84C954.708 165.963 956.372 163.659 957.567 160.928C958.847 158.112 959.487 154.87 959.487 151.2C959.487 147.616 958.847 144.459 957.567 141.728C956.372 138.912 954.708 136.608 952.575 134.816C950.442 132.939 948.01 131.531 945.279 130.592C942.548 129.568 939.647 129.056 936.575 129.056ZM972.836 130.464V118.688H975.268C976.719 118.688 978.212 118.091 979.748 116.896C981.369 115.702 982.82 114.166 984.1 112.288C985.38 110.411 986.447 108.32 987.3 106.016C988.153 103.712 988.58 101.451 988.58 99.2322L1001.25 99.1042C1001.08 102.688 1000.23 106.102 998.692 109.344C997.156 112.502 994.895 115.062 991.908 117.024C990.799 117.707 989.433 118.219 987.812 118.56C986.276 118.816 984.868 119.072 983.588 119.328V119.584C984.868 119.328 986.276 119.115 987.812 118.944C989.433 118.774 990.884 118.688 992.164 118.688H1014.82V130.464H998.564V164.512C998.564 167.328 999.247 169.206 1000.61 170.144C1001.98 170.998 1003.64 171.424 1005.6 171.424H1017.89V183.2H1006.24C1002.06 183.2 998.649 182.816 996.004 182.048C993.359 181.195 991.311 179.915 989.86 178.208C988.409 176.502 987.385 174.326 986.788 171.68C986.276 168.95 986.02 165.75 986.02 162.08V130.464H972.836Z" fill="#0066FF"/>
</svg>
